Pack 3:

2011-04-24 The Easter Story
2011-05-01 Anglesey's Royal Celebration
2011-05-08 Cathedrals (Nothing)
2011-05-15 Sissinghurst
2011-05-22 School Assemblies


Video
ID                                       : 0
Format                                   : MPEG-4 Visual
Format profile                           : Simple@L3
Format settings, BVOP                    : No
Format settings, QPel                    : No
Format settings, GMC                     : No warppoints
Format settings, Matrix                  : Default (H.263)
Codec ID                                 : XVID
Codec ID/Hint                            : XviD
Duration                                 : 34mn 15s
Bit rate                                 : 4 247 Kbps
Width                                    : 720 pixels
Height                                   : 404 pixels
Display aspect ratio                     : 16:9
Frame rate                               : 29.970 fps
Original frame rate                      : 29.000 fps
Color space                              : YUV
Chroma subsampling                       : 4:2:0
Bit depth                                : 8 bits
Scan type                                : Progressive
Compression mode                         : Lossy
Bits/(Pixel*Frame)                       : 0.487
Stream size                              : 1.02 GiB (97%)
Writing library                          : XviD 1.2.1 (UTC 2008-12-04)

Audio
ID                                       : 1
Format                                   : MPEG Audio
Format version                           : Version 1
Format profile                           : Layer 3
Mode                                     : Joint stereo
Mode extension                           : MS Stereo
Codec ID                                 : 55
Codec ID/Hint                            : MP3
Duration                                 : 34mn 15s
Bit rate mode                            : Constant
Bit rate                                 : 128 Kbps
Channel(s)                               : 2 channels
Sampling rate                            : 44.1 KHz
Compression mode                         : Lossy
Stream size                              : 31.4 MiB (3%)
Alignment                                : Aligned on interleaves
Interleave, duration                     : 26 ms (0.78 video frame)
Interleave, preload duration             : 130 ms
Writing library                          : LAME3.98
